<?xml version="1.0" encoding="UTF-8"?>
<svg xmlns="http://www.w3.org/2000/svg" id="Ebene_2" viewBox="0 0 900 296.51">
  <defs>
    <style>
      .cls-1 {
        fill: #95c11f;
      }

      .cls-2 {
        fill: none;
        stroke: #95c11f;
        stroke-width: 1.78px;
      }
    </style>
  </defs>
  <g id="Ebene_1-2" data-name="Ebene_1">
    <g>
      <path class="cls-1" d="M886.38,259.87h6.81v-7.05c0-3.82,1.45-5.4,4.13-5.4,1.38,0,2,.21,2.69.45v-6.02c-.66-.17-1.31-.27-2-.27-2.48,0-3.92,1.17-5.02,3.3h-.07v-2.85h-6.54v17.85h0ZM883.25,242.02h-6.81v9.43c0,2.86-1.55,3.44-2.72,3.44-2,0-2.24-1.45-2.24-3.51v-9.36h-6.81v12.25c0,4.09,2.92,6.05,6.12,6.05,2.72,0,4.54-.93,5.82-2.71h.07v2.27h6.57v-17.85h0ZM843.09,259.87h6.81v-9.43c0-2.85,1.55-3.44,2.72-3.44,2,0,2.24,1.45,2.24,3.51v9.36h6.81v-12.25c0-4.09-2.92-6.05-6.12-6.05-2.89,0-4.41,1-5.58,2.37h-.07v-8.63h-6.81v24.56h0ZM837.29,236.58h-6.81v5.44h-3.03v4.19h3.03v8.54c0,4.88,3.2,5.33,6.09,5.33,1.45,0,2.99-.21,4.37-.21v-5.16c-.52.07-1.03.1-1.55.1-1.72,0-2.1-.72-2.1-2.38v-6.23h3.65v-4.19h-3.65v-5.44h0ZM813.52,259.87h6.81v-7.05c0-3.82,1.44-5.4,4.13-5.4,1.38,0,2,.21,2.69.45v-6.02c-.66-.17-1.31-.27-2-.27-2.48,0-3.92,1.17-5.02,3.3h-.07v-2.85h-6.54v17.85h0ZM811.33,252.47c0-6.95-3.06-10.9-10.15-10.9-5.64,0-9.43,4.23-9.43,9.43,0,5.95,4.3,9.32,10.01,9.32,4.06,0,7.81-1.79,9.19-5.64h-6.36c-.55.86-1.76,1.27-2.86,1.27-2.13,0-3.3-1.45-3.47-3.48h13.07ZM798.29,248.93c.31-1.93,1.48-3,3.51-3,1.76,0,3,1.34,3,3h-6.51ZM787.25,236.58h-6.81v5.44h-3.03v4.19h3.03v8.54c0,4.88,3.2,5.33,6.09,5.33,1.44,0,2.99-.21,4.37-.21v-5.16c-.52.07-1.03.1-1.55.1-1.72,0-2.1-.72-2.1-2.38v-6.23h3.65v-4.19h-3.65v-5.44h0ZM757.47,259.87h6.81v-9.43c0-2.85,1.55-3.44,2.72-3.44,2,0,2.24,1.45,2.24,3.51v9.36h6.81v-12.25c0-4.09-2.92-6.05-6.12-6.05-2.72,0-4.55.93-5.82,2.72h-.07v-2.27h-6.57v17.85h0ZM754.32,235.31h-6.81v4.78h6.81v-4.78h0ZM747.5,259.87h6.81v-17.85h-6.81v17.85h0ZM746.18,235.31h-7.47l-3.06,15.38h-.07l-2.89-15.38h-6.68l-2.96,15.17h-.07l-2.99-15.17h-7.43l6.68,24.56h7.4l2.58-14.97h.07l2.65,14.97h7.36l6.88-24.56h0ZM702.38,252.47c0-6.95-3.06-10.9-10.15-10.9-5.64,0-9.43,4.23-9.43,9.43,0,5.95,4.3,9.32,10.01,9.32,4.06,0,7.81-1.79,9.18-5.64h-6.36c-.55.86-1.76,1.27-2.86,1.27-2.13,0-3.3-1.45-3.47-3.48h13.07ZM689.34,248.93c.31-1.93,1.48-3,3.51-3,1.76,0,3,1.34,3,3h-6.51ZM673.67,259.87h6.81v-24.56h-6.81v24.56h0ZM670.48,242.02h-6.81v9.43c0,2.86-1.55,3.44-2.72,3.44-2,0-2.24-1.45-2.24-3.51v-9.36h-6.81v12.25c0,4.09,2.92,6.05,6.12,6.05,2.72,0,4.55-.93,5.82-2.71h.07v2.27h6.57v-17.85h0ZM630.31,259.87h6.81v-9.43c0-2.85,1.55-3.44,2.72-3.44,2,0,2.24,1.45,2.24,3.51v9.36h6.81v-12.25c0-4.09-2.92-6.05-6.12-6.05-2.89,0-4.41,1-5.58,2.37h-.07v-8.63h-6.81v24.56h0ZM627.99,248.79c-.41-4.92-4.41-7.22-9.09-7.22-5.36,0-9.66,3.75-9.66,9.39s4.3,9.36,9.66,9.36c4.82,0,8.64-2.72,9.29-7.57h-6.5c-.14,1.41-1.17,2.62-2.65,2.62-2.61,0-2.99-2.24-2.99-4.41s.38-4.44,2.99-4.44c.72,0,1.31.21,1.72.58.45.38.69.97.76,1.69h6.47ZM607.49,247.21c-.17-4.57-4.82-5.64-8.67-5.64-3.58,0-8.43,1.17-8.43,5.67,0,3.06,2.1,4.72,7.29,5.61,3.17.55,3.76.86,3.76,1.89s-1.41,1.38-2.31,1.38c-.83,0-1.48-.21-1.83-.52-.52-.45-.79-.96-.83-1.58h-6.5c.1,4.61,4.71,6.29,8.91,6.29s9.08-1.34,9.08-6.29c0-2.93-1.99-4.27-4.26-4.99-2.27-.76-4.85-.89-5.99-1.38-.38-.17-.79-.41-.79-.93,0-1.17,1.1-1.38,2.07-1.38.55,0,1.1.17,1.51.52.45.31.76.76.79,1.34h6.19ZM588.28,247.21c-.17-4.57-4.82-5.64-8.67-5.64-3.58,0-8.43,1.17-8.43,5.67,0,3.06,2.1,4.72,7.29,5.61,3.17.55,3.76.86,3.76,1.89s-1.41,1.38-2.31,1.38c-.83,0-1.48-.21-1.83-.52-.52-.45-.79-.96-.83-1.58h-6.5c.1,4.61,4.71,6.29,8.91,6.29s9.08-1.34,9.08-6.29c0-2.93-2-4.27-4.26-4.99-2.27-.76-4.85-.89-5.99-1.38-.38-.17-.79-.41-.79-.93,0-1.17,1.1-1.38,2.07-1.38.55,0,1.11.17,1.52.52.45.31.76.76.79,1.34h6.19ZM568.72,242.02h-6.81v2.16h-.07c-.79-1.82-2.69-2.61-4.68-2.61-5.09,0-7.74,3.88-7.74,8.53s2.37,8.71,7.64,8.71c2.03,0,3.69-.9,4.79-2.48h.07v1.65c0,1.48-.48,4.1-2.69,4.1-.86,0-1.58-.69-2-1.31-.13-.2-.31-.45-.37-.62h-6.75c.62,4.81,5.09,5.95,9.33,5.95,8.36,0,9.28-4.99,9.28-8.53v-15.55h0ZM556.23,250.06c0-1.89.96-3.55,2.89-3.55s2.96,1.55,2.96,3.51-.27,4.41-2.79,4.41-3.06-2.34-3.06-4.37M528.77,259.87h6.81v-9.43c0-2.85,1.55-3.44,2.72-3.44,2,0,2.24,1.45,2.24,3.51v9.36h6.81v-12.25c0-4.09-2.92-6.05-6.12-6.05-2.72,0-4.54.93-5.82,2.72h-.07v-2.27h-6.57v17.85h0ZM525.65,242.02h-6.81v9.43c0,2.86-1.55,3.44-2.72,3.44-2,0-2.24-1.45-2.24-3.51v-9.36h-6.81v12.25c0,4.09,2.92,6.05,6.12,6.05,2.72,0,4.55-.93,5.82-2.71h.07v2.27h6.57v-17.85h0ZM497.41,250.92c0,2.14-.55,4.44-3,4.44s-3-2.31-3-4.44.55-4.41,3-4.41,3,2.31,3,4.41M503.98,235.31h-6.81v8.67h-.07c-1.03-1.51-2.86-2.41-4.89-2.41-5.98,0-7.6,5.09-7.6,9.29,0,4.47,2.44,9.46,7.5,9.46,3.34,0,4.37-1.27,5.23-2.41h.07v1.96h6.57v-24.56h0ZM475.39,259.87h6.81v-24.56h-6.81v24.56h0ZM472.17,235.31h-6.81v4.78h6.81v-4.78h0ZM465.36,259.87h6.81v-17.85h-6.81v17.85h0ZM443.55,259.87h6.57v-1.96h.07c.86,1.13,1.9,2.41,5.24,2.41,5.05,0,7.5-4.98,7.5-9.46,0-4.2-1.62-9.29-7.6-9.29-2.03,0-3.86.89-4.89,2.41h-.07v-8.67h-6.81v24.56h0ZM456.11,250.92c0,2.14-.55,4.44-3,4.44s-2.99-2.31-2.99-4.44.55-4.41,2.99-4.41,3,2.31,3,4.41M440.89,247.21c-.17-4.57-4.82-5.64-8.67-5.64-3.58,0-8.43,1.17-8.43,5.67,0,3.06,2.1,4.72,7.29,5.61,3.17.55,3.75.86,3.75,1.89s-1.41,1.38-2.31,1.38c-.83,0-1.48-.21-1.83-.52-.52-.45-.79-.96-.83-1.58h-6.5c.1,4.61,4.71,6.29,8.91,6.29s9.08-1.34,9.08-6.29c0-2.93-2-4.27-4.26-4.99-2.27-.76-4.85-.89-5.99-1.38-.38-.17-.79-.41-.79-.93,0-1.17,1.1-1.38,2.07-1.38.55,0,1.1.17,1.52.52.45.31.76.76.79,1.34h6.19ZM412.52,259.87h6.81v-13.66h3.44v-4.19h-3.58c-.1-1.65.45-2.14,2.1-2.14.55,0,1.1.17,1.65.24v-4.68c-1.04-.03-2.03-.14-3.06-.14-2.75,0-4.47.21-5.95,1.68-1.31,1.31-1.48,3.27-1.41,5.03h-2.79v4.19h2.79v13.66h0ZM408.13,242.02h-6.81v9.43c0,2.86-1.55,3.44-2.72,3.44-2,0-2.24-1.45-2.24-3.51v-9.36h-6.81v12.25c0,4.09,2.92,6.05,6.12,6.05,2.72,0,4.55-.93,5.82-2.71h.07v2.27h6.57v-17.85h0ZM374.78,259.87h6.81v-7.05c0-3.82,1.45-5.4,4.13-5.4,1.38,0,1.99.21,2.68.45v-6.02c-.65-.17-1.31-.27-2-.27-2.48,0-3.92,1.17-5.02,3.3h-.07v-2.85h-6.53v17.85h0ZM372.59,252.47c0-6.95-3.06-10.9-10.15-10.9-5.64,0-9.42,4.23-9.42,9.43,0,5.95,4.29,9.32,10.01,9.32,4.06,0,7.81-1.79,9.19-5.64h-6.36c-.55.86-1.76,1.27-2.86,1.27-2.14,0-3.31-1.45-3.48-3.48h13.08ZM359.54,248.93c.31-1.93,1.48-3,3.51-3,1.76,0,3,1.34,3,3h-6.51ZM336.55,241.15h4c1.55,0,2.58.45,2.58,1.69,0,1.58-1,2.03-2.58,2.03h-4v-3.72h0ZM328.98,259.87h13.93c4.34,0,8.6-2.55,8.6-7.47,0-3.61-2.07-5.37-4.26-6.12,1.82-1,3.02-2.34,3.02-4.82s-1.38-6.15-7.84-6.15h-13.45v24.56h0ZM336.55,249.44h4.75c1.79,0,2.65.79,2.65,2.24,0,1.89-1.38,2.34-2.96,2.34h-4.44v-4.58h0Z"></path>
      <path class="cls-1" d="M806.49,74.3h-44.89l-18.41,92.47h-.41l-17.38-92.47h-40.14l-17.79,91.23h-.41l-18-91.23h-44.69l40.14,147.71h44.48l15.52-89.99h.41l15.93,89.99h44.27l41.38-147.71h0ZM520.24,109.47h24c9.31,0,15.51,2.69,15.51,10.13,0,9.52-6,12.21-15.51,12.21h-24v-22.34h0ZM474.73,222.01h83.78c26.07,0,51.72-15.31,51.72-44.89,0-21.72-12.41-32.27-25.65-36.82,10.97-6,18.21-14.07,18.21-28.96s-8.27-37.03-47.16-37.03h-80.89v147.71h0ZM520.24,159.32h28.55c10.76,0,15.93,4.76,15.93,13.45,0,11.38-8.28,14.07-17.79,14.07h-26.69v-27.52h0ZM373.34,109.47h24c9.31,0,15.52,2.69,15.52,10.13,0,9.52-6,12.21-15.52,12.21h-24v-22.34h0ZM327.83,222.01h83.78c26.06,0,51.72-15.31,51.72-44.89,0-21.72-12.41-32.27-25.65-36.82,10.97-6,18.21-14.07,18.21-28.96s-8.27-37.03-47.17-37.03h-80.89v147.71h0ZM373.34,159.32h28.55c10.76,0,15.93,4.76,15.93,13.45,0,11.38-8.27,14.07-17.79,14.07h-26.68v-27.52h0Z"></path>
      <path class="cls-1" d="M145,35.08c-.84,1.75-2.33,3.98-3.92,4.74,2.53.45,6.81,1.34,9.97,1,3.95-.43,6.33-4.1,4.22-7.82-.15-.26-.08-1.01.9-.47,4.89,2.64,3.88,9.79-1.22,11.62-4.87,1.74-10.93-.88-15.21-1.59.63,1.15,1.08,2.61,1.17,3.45,1.2.32,4.18,1.18,4.06,2.29-.42,3.38-1.07,7.43-2.47,10.56-1.25,2.79-3.51,6.02-6.27,6.38.56-9.66-10.2-3-16.27-4.99-.54,6.87,10.22,8.69,21.72,13.62,6,2.57,11.86,5.75,15.77,11.7,4.56-3.46,8.41-5.54,14.44-8.6,2.26-1.15,4.34-2.2,4.78-4.35.35-1.7.16-6.2-.2-8.87-1.79-13.41,11.22-20.8,19.98-14-.24.39-.49,1.01-.55,1.66,2.71.7,5.6,2.45,7.43,4.23-.58.66-1.01,1.35-1.29,2.15,2.18.94,5.04,3.3,5.95,5.67-1.09.96-2.37,2.91-2.84,3.89-1.64,3.45-1.65,7.81-2.39,11.74-.64,3.42-1.95,7.23-4.14,9.82-4.77,5.63-14.55,8.76-19.38,14.7-1.64,2.02-1.66,6.37,1.19,7.4-2.73,3.43-7.29,3.98-10.22,3.62.51,2.15,2.92,3.36,4.15,3.48-4.1,8.19-11.34,4.1-14.86,6.32-.34,1.06-.6,1.71-.92,2.43,5.95,1.02,12.27,3.12,15.87,4.59,3.16,1.29,7.95,4.1,12.42,2.46,2.74-1,5.32-3.81,7.8-5.67,3.29-2.48,6.93-5.32,13.83-4.5,6.13.73,12.6,6.56,12.07,16.08-.7-.09-1.28-.09-1.79,0,.28,1.46.65,4.68.37,6.63-.92-.14-1.62-.07-2.16.03.14,1.77-.36,5.39-1.54,7.53-1.76-.59-4.4-1.02-6.72-.28-6.46,2.09-10.76,9.08-21,8.22-2.41-.2-5.52-.76-7.94-1.3-2.29-.52-5.58-1.74-7.18-1.52-1.85.26-1.96,1.46-2.31,3.46-4.54-.76-7.22-3.31-7.9-5.9-2.01,1.45-1.85,4.05-1.88,6.4-3.91-.36-7.48-1.8-9.44-4.64-1.42,2.85-5.09,5.57-9.37,5.47.25-1.79-.03-4.66-1.96-6.5-2.58,3.18-5.48,5.59-9.66,8.56,7.79,3.91,16.55,9.02,24.17,15.54,6.93,5.94,15.12,15.32,15.56,24.9.47,10.31-6.95,16.26-12.89,20.66-5.88,4.35-10.79,7.87-16.4,11.62-.53.33-.49.61-.35,1.04,1.35,3.91,3.35,7.76,5.58,10.63,1.27,1.63,3.81,4.63,6.34,4.7,3.9.12,9.44-3.43,13.91-4,9.75-1.23,16.82,6.95,13.71,17.59-.62-.31-1.47-.45-2.02-.38.1,3.19-.96,6.55-1.89,8.38-.78-.52-1.69-.8-2.33-.89-.48,2.64-1.92,6.16-3.73,7.92-1.27-1.1-3.31-1.7-4.49-1.84-13.87-.58-20.28,1.26-25.22-1.94-1.57-1.02-3.34-3.76-4.75-5.62-1.48-1.95-3.12-4.95-4.66-5.34-1.94-.49-3.15.28-4.15,1.28-1.37-1.74-2.23-4.38-1.84-6.6-1.8-.45-3.94,1.07-5.18,2.3-1.51-2.04-2.39-5.81-1.89-8.96-2.4-.54-4.76,1.06-6.05,2.59-2.36-3.85-1.87-8.08-.44-10.48-3.26-.65-6.1-2.92-7.23-6.08,5.53-2.35,6.31-5.91,8.13-9.86,2.41-5.22,17.8-5.8,19.42-13.14.52-2.36-.26-5.41-1.09-6.96-4.13-7.69-17.23-10.1-28.45-10.02-.43,6.36-1.11,11.8-2.37,16.51-1.18,4.41-3.15,8.68-5.91,11.77-3.68,4.11-10.12,6.44-16,8.18-5.88,1.75-11.05,2.9-17.25,4.35-1.02.11.51,10.65,3.69,17.47,1.72,3.7,2.37,5.71,5.46,5.24,3.84-.58,9.1-3.17,13.96-3,9.9.35,16.83,10.89,11.39,21.63-.64-.36-1.11-.61-1.66-.71-.38,2.43-1.4,4.83-2.4,6.43-.82-.58-1.44-.85-2.22-1.09-.98,3.03-2.94,5.57-4.64,6.71-1.23-1.26-2.91-2.41-5.32-2.5-14.95-.56-21.41,1.63-27.49-3.9-1.98-1.81-3.55-4.78-4.85-7.8-2.54-5.9-4.56-9.14-8.92-4.84-1.79-2.71-2.01-6.14-.82-8.4-1.96-.63-4.61.24-6.2,1.02-1.58-2.79-1.38-7.35.33-9.61-4.11-.4-8.01-3.81-8.77-8.35,2.35.06,5.31-1.19,6.96-2.82-3.82-.79-6.87-4.1-7.76-8.55,2.52,0,5.39-.56,7-1.82,3.63-2.84,2.49-8.56,8.11-10.44,6.74-2.25,19.94.8,20.33-7.64.16-3.53-2.42-10.26-3.51-14.47-1.17-4.47-1.83-9.15-1.83-14.31-31.14,2.97-41.11-17.65-40.23-34.42.72-13.67,5.65-23.16,13.57-38.94,9.76-19.44,16.85-33.43,16.24-46.79-.27-6.09-2.51-13.27-7.05-14.54-8.66-2.42-11.97,7.4-7.77,12.46,1.41,1.71,4.16,2.96,7.44,2.62.12,4.53-2.18,7.3-5.39,8.06,1.12,8.28-2.28,15.27-8.18,18.51-.08-.96-.32-1.71-.57-2.63-4.24,3.32-13.37,6.81-19.3,2.8,1.75-2,2.64-3.04,3.77-4.6,2.32-3.18,4.26-7.02,4.54-11.43.29-4.6.48-9.11.57-12.88.29-11.88,8.17-24.15,22.64-23.07,12.21.91,19.11,10.88,19.74,24.22.72,15.39-7.04,33.05-17.57,57.72-4.18,9.8-8.07,19.99-7.75,27.85.39,9.67,6.85,16.44,15.96,16.66,5.56.14,12.42-2.54,15.3-5.47.4-.41.79-.98,2.35-3.15,6.95-9.65,21.21-15.89,22.06-31.12-4.77,1.47-10.92-1.48-11.95-4.99,4.26-1.58,7.3-5.03,6.24-13.9-.07-.84-.18-2.01-.22-3.04-2.36.4-4.28,2.08-5.4,3.89-7.74-7.99-3.74-18.19-1.11-25.29-5.95.29-10.72-4.27-11.33-8.32,2.88-.38,4.68-2.48,4.62-5.01-.06-2.09-1.52-5.26-2.67-7.76-3.28-7.15-6.45-14.33-6.27-24.07-4.26-2.01-6.13-6.99-6.01-10.92,3.65-.26,6.25-2.01,6.36-4.34.09-1.86.4-5.33,1.17-7.63-1.39-1.36-3.63-5.53-1.43-10.41,1.56.36,4.01.43,5.49-.39.65-.36,1.91-2.61,4.05-4.18-.31-1.52-.02-4.92,1.68-7.07,1.05.47,2.73.93,4.39,1.1,7.22.73,24.36-4.36,37.04.42,2.64.99,4.88,2.51,6.53,4.16,2.52.27,5.68.81,8.8,1.51,6.2,1.39,6.08,2.51,8.39,2.96.94.18,3.54.37,6.14.59,2.77.23,10.75,1.69,12.32,3.39,1.44,1.55-.03,4.35.05,7.4.07,2.82,1.49,7.81-.43,11.17-.62,1.08-1.84,1.62-3.06,1.83M95.18,3.53c-12.74-.39-17.17,1.62-24.99,1.95-1.5-.04-2.7-.44-3.16-.65-.38.86-.52,3.04-.02,4.08-4.3,2.57-4.8,7.6-10.47,6.68-.37,1.56.59,3.67,1.67,4.47.58-.23,1.78-.65,1.6-.06-2.29,6.49-1.84,9.26-2.41,12.53-.35,1.95-3.12,3.75-5.66,4.25-.18,1.72.92,4.32,3.33,4.75,1.45-2.94,3.58-3.39,3.22-2.49-.62,1.5-1.12,4.16-1.17,6.07-.15,6.4,1.48,12.89,3.52,17.64,3.98,9.27,8.92,16.67,2.05,21,.9,2.15,5.33,3.65,8.62,2.33,1.36-3.57.5-6.25.32-7.14-.07-.31.24-.37.58-.1,2,1.68,2.12,5,1.73,7.62-1.01,6.97-6.96,15.58-2.85,23.67,1.23-1.12,3.12-2.03,4.84-2.42.28-4.23,1.62-7.21,4.07-8.99,1.43-1.04,1.68-.38,1.29.05-3.02,3.69-2.82,10.63-2,16.87,1.01,7.78-1.45,12.36-3.79,13.59,2.87,1.82,7.66.71,10.11-.57,1.8-.93,4.6-3.26,5.66-5.39-2.72-4.67-2.89-9.03-2.2-11.84.57-2.31,1.86-3.11,1.62-2-1.73,9.81,7.6,14.32,7.39,23.88,4.85-1.59,6.95-7.43,6.56-12.92.08-.74.67-.37.94.38,2.75,7.82-2.23,18.73-11.49,17.78,1.3-4.62-.22-10.04-1.56-12.68-1.18,2.44-3.43,4.49-5.57,5.7-.29,2.43-.84,4.57-1.26,6.34-1.53,6.42-4.21,10.88-8.2,14.97-8.72,8.94-11.95,9.66-17.65,17.94-1.24,1.28-5.01,3.32-7.19,4.18-17.27,6.8-31.73-2.45-30.58-20.97.46-7.43,4.34-17.23,7.44-24.3,9.04-20.69,17.55-38,18.65-53.78.89-12.98-4.68-25.91-18.18-26.05-9.17-.09-18,7.43-18.2,22.52-.11,8.89.09,15.61-3.71,21.68-.82,1.3-1.22,1.94-2.31,3.36,5.25.88,10.81-2.1,14.5-6.33.35.63.92,1.62,1.16,2.59,3.89-3.72,4.51-10.6,3.07-16.05,2.53.73,4.81-.81,5.72-2.96-5.85-.77-9.77-6.33-8.85-12.42.55-3.6,3.73-7.54,8.05-8.05,11.26-1.32,14.56,10.09,14.4,20.91-.2,13.73-8.49,28.89-15.82,44.26-5.91,12.38-12.61,24.95-13.29,36.71-.76,13.05,5.21,36.36,37.67,31.31,1.3-3.79,2.9-5.26,3.87-4.83.31.16.08.76-.1,1.98-.59,4.01-.79,6.52-.59,10.81.38,8.45,4.06,16.88,4.49,22.99.68,9.66-4.31,10.77-12.2,11.67-3.32.38-8.26.25-11.28,1.7-1.76.84-2.91,5.2-4.62,7.39-1.69,2.16-4.01,3.24-6.82,3.79.85,2.17,3.78,3.74,6.96,3.82,1.15-.86,2.41-2.91,2.94-5.37.11-.51.73-.87.67,1.02-.17,5.08-4.86,10.63-10.09,11.42.94,2.42,4.65,4.25,7.55,3.92,2.27-1.22,4.07-3.38,4.9-6.44.22-.87.77-.48.73.67-.07,3.03-1.63,5.5-3.69,7.39-2.05,1.9-3.38,4.41-2.71,7.38,1.35-.68,3.98-.83,5.95-.39,1-.93,2.4-2.5,2.8-4.76.14-.75.91-.59.77,1.18-.32,4.22-3.78,6.14-2.9,10.13,8.26-3.95,9.17,10.73,15.59,15.15,5.33,3.67,15.2,1.47,24.18,2.12.64-3.95,3.17-8.01,6.67-8.75-1.49-5.65-8.04-5.44-11.04-3.49-.65.43-.46-.43.27-1.04,3.64-2.71,8.91-1.88,11.42,1.24.62-1.14,1.84-2.08,2.82-2.25-2.58-5.4-8.75-6.41-13.22-3.68-.81.53-.57-.65.85-1.47,5.35-3.1,11.02-.68,13.53,3.29.51-.85,1.62-1.9,2.47-1.83-1.46-3.5-5.27-5.97-10.13-5.88-8.42.16-15.52,5.75-18.6,1.43-3.47-4.9-7.79-13.79-8.12-24.42,0-.9.03-1.73.84-2.02,6.52-1.49,12.69-2.71,18.2-4.5,5.93-1.93,11.82-3.98,16.07-8.96,4.52-5.3,5.75-17.26,6.52-26.96.37-4.64.82-11.49,1.18-16.58.57-8.13,2.29-13.32,5.47-14.83.81-.37,1.21.02.59,1.15-.81,1.34-1.48,3.85-1.8,6.13,1.42-1.1,3.25-2.32,4.52-3.01,4.17-2.26,6.96-3.48,11.57-5.9,4.39-2.3,8.6-5.36,11.74-7.83,1.98-1.56,4.3-3.43,6.28-6.11-.48-.65-.99-1.5-1.24-2.08-2.24,3.02-6.84,5.52-10.47,5.21.96-3.04-.14-7.29-2.69-9.38-2.82-2.32-4.58-3.62-6.36-5.57-5.92-6.48-.87-20.17-6.94-28.43-.42-.85.49-.62,1.49.32,3.53,3.34,4.2,8.49,4.93,13.65.55,3.87.77,8.49,2.61,11.38,3.28,5.15,10.75,6.28,10.43,14.05,2.38-.63,5.31-2.93,5.43-4.95-.12-.93-.58-3.02-1.84-3.96-.31-.23-.11-.71.83-.41,1.76.55,2.63,2.72,3.38,4.31.82,1.72,1.66,3.29,2.86,4.67,2.16,2.49,4.8,3.76,5.17,7.8,2-.62,4.66-2.69,4.9-5.34-1.06-3.02-.38-5.85-3.51-7.93-.41-.28-.22-.98,1.48-.26,3.99,1.68,3.39,6.44,5.33,9.07,1.29,1.74,2.84,3.22,5.47,3.8.28-2.45,1.32-5.09,3.49-6.5-.2-1.36-.41-2.17-1.94-3.38-.41-.32-.34-.98,1.41-.09,3.62,1.84,2.56,7,7.41,9.05,1.38-4.27,6.6-2.8,11.55-1.52,2.47.64,5.5,1.39,8.15,1.52,9.84.48,11.48-6.14,20.1-8.28-.61-4.3.27-8.25,3.03-9.9-3.61-4.26-9.57-2.08-11.59.83-.45.59-.39-.44.3-1.44,2.6-3.92,7.85-4.32,11.05-2.45-.07-1.34.45-3.53,1.26-3.59-2.35-2.65-9.27-3.74-13.01.8-.45.51-.34-.47.21-1.28,2.73-3.73,8.89-4.79,13.06-1.67-.03-.87.41-2.76,1.44-2.8-1.76-2.08-5.27-3.31-8.72-2.97-9.91,1-12.62,11.94-23.31,11.04-2.47-.2-4.86-1.79-9.64-3.44-2.51-.86-5.58-1.71-8.37-2.37-7.65-1.79-14.75-1.89-18.69-7.04-1.33-1.74-2.48-3.84-2.93-6.93-.24-1.42.32-2.07.71-1.12,2.35,4.61,4.79,8.88,10.61,10.02,2.39-4.53,4.17-12.26,3.87-18.95-2.53-1.14-2.51-2.29-3.33-2.64.36,5.08-1.55,10.39-3.13,11.97-.72-4.76-4.68-8.28-8.75-9.38-.53-.14-.6-1,1.62-.85,1.49.1,5,1.03,6.54,3.07,1.4-4.9.57-9.48-1.17-13.94-.94-2.41-3.17-5.56-5.66-7.38-.54-.39-.31-1.01,1.45-.1,4.53,2.33,8.01,6.9,8.78,13.25,2.39,1.4,3.39,4.53,6.75,3.63-2.88-3.22-1.44-8.62-5.97-16.47-2.41-4.17-5.64-7.18-11.07-9.85-6.7-3.29-14.77-5.6-19.93-7.67-5.42-2.17-8.42-4.57-9.13-12.39-1.82-.82-2.87-1.98-3.95-3.34-.99.86-1.6,2.76-1.64,3.99-3.52-1.7-5.39-5.27-5.72-8.4-1.11.16-3.33,6.53-11.48,3.48,4.84-5.05-1.79-9.04,3.43-15.06.98-1.22,2.46-1.53,1.81-.62-4.76,6.81.98,9.16-1.25,13.61,5.16.48,5.47-6.34,9.99-6.23-.62,3.02.08,7.14,1.92,8.43,1.08-1.91,2.41-3.17,4.41-3.94.88,3.74,3.52,5.74,6.74,6.46,4.87,1.08,10.35-1.8,14.33-1.24,2.4.34,4.55,1.75,5.41,3.77,1.99-1.95,3.81-9.32,3.02-9.87-7.76-4.85-20.33,5.54-24-3.24-.65-1.55-.97-3.53-.69-5.29,1.09-7.09,5.78-10.51,14.21-9.9,3.7.27,11.8,2.01,13.97.41,1.79-1.33,1.3-6.34.21-8.52-2.18-.59-4.71-2.05-4.58-3.66.14-1.43,1.47,1.58,4.36.68.81-.37,1.26-3.31.72-3.48-4.66-1.74-11.06-2.84-16.73-2.24-.84,2.53-2.83,2.79-3,4.73-.29,3.33-1.34,6.07-2.74,7.16-.55.37-.51-.19-.19-1.25.4-1.3.86-3.47.25-4.81-1.29-2.83-6.84-2.44-6.97-5.57-.08-1.28.66-1.13,6.16.14,2.32.54,2.55.58,2.88-.14.92-2.05-2.23-3.15-5.01-3.82-8.35-2.01-16.04-1.75-19.31-.48,3.3,1.56,4.15,4.72,3.11,6.22-.72.96-.21-1.56-3.92-3.79-4.05-2.44-11.21-2.84-12.6-.87-.79,1.11-1,4.41-.76,5.9.41,2.57,1.24,5.09,4.08,7,3.9,2.61,6.53,1.16,6.16,1.99-.83,1.77-5.91,1.53-8.89-.85-2.47-1.97-4.31-4.56-4.79-8.25-.34-2.62,0-6.56,1.21-7.98,1.62-1.93,6.23-2.34,10.53-1.51,3.47-1.06,8.05-1.73,11.57-1.48-2.47-2.07-7.35-3.12-11.67-3.26M119.99,42.49c4-3.32,9.8-4.57,18.3-3.11-.07-1.46-.89-3.57-1.57-4.59-8.51-1.4-16.56-1.54-16.73,7.7M139.15,34.72c.47,1.08.78,2.3.84,2.74.07.47.05.89.3.76.83-.41,2.25-2.29,2.48-3.59-.99.17-2.77.15-3.62.09M121.09,45.73c1.02,3.42,7.12.17,11.89-.16,1.5-1.23,2.67-2.49,3.3-3.59-5.82-1.16-12.24-.41-15.18,3.74M137.9,42.94c-.17-.08-.29.3-.55.7-.36.56-.97,1.41-1.83,2.16.83-.05,2.45.06,3.21.23.09-1.11-.56-2.97-.82-3.09M193.13,50.43c-1.58-.75-4.59-1.15-6.65.04-.67.6.17,1.41,2.11,1.81,1.51-.72,3.1-1.01,4.42-1.06,0-.31.04-.43.12-.79M183.79,64.4c-1.08-2.98-.89-5.2.3-7.77.58-1.26,1.91-2.68,2.81-3.36-1.57-.35-2.17-1.17-2.36-1.88-8.55,4.57-4.1,13.43-4.98,21.32-.54,4.9-6.78,6.66-10.87,9.22-3.52,2.21-6.98,4.58-9.41,7.07,4.41,10.44,1.39,12.73,6.31,17.78-.84,1.01-2.42,1.71-3.57,1.72-.07,4.42-.46,8.43-1.6,12.38,3.6-1.46,6.28.96,9.29-1.96-2.76-2.1-2.88-6-2.17-8.18.41-1.26.94-1.1.94-.75,0,.63.08,1.21.23,1.62,1.61.42,5,.58,7.25-.9-3.84-6.57,3.51-12.35,9.07-15.99,3.86-2.52,9.43-5.3,12.18-9.02,3.71-5.01,1.89-10.47,4.28-17.89-2.8-1.41-6.52-4.18-6.11-8.16-2.95.38-6.41,4.02-4.51,10.22.32,1.07-.34.76-.95-.24-2.42-4.53-.26-9.71,2.49-11.23-1.54-.99-2.83-2.92-2.67-3.94-4.47,1.63-5.89,5.51-4.92,10.66.15.76-.48.79-1.02-.71M200.01,56.44c-1.58-1.54-5.65-3.42-8.57-2.46-.24,1.19,1.41,2.78,2.6,3.49,1.43-.54,3.45-.77,5.62-.28.09-.23.2-.46.35-.76M204.4,63.03c-1.68-2.61-5.14-3.61-6.94-3.44-.63,2.55,2.67,5.49,4.89,6.31.71-1.62,1.42-2.44,2.05-2.87M214.3,133.18c1.19,1.24,2.41,3.06,2.99,4.66.19-.05.53-.13.74-.13.14-2.11-1.17-5.88-2.91-7.38-.74-.21-1.02,1.89-.82,2.85M216.9,143.98c.06-2.97-1.56-7.11-3.31-8.61-.85.13-1.02,2.14-.93,3.47,1.67,1.44,2.78,3.55,3.31,5.3.32-.07.68-.15.93-.16M212.27,142.15c-2.47,1.68-2.48,5.6-2.05,8.1,1.31-.24,2.39-.19,3.54.17.79-2.59,0-6.75-1.49-8.26M169.17,253.85c-8-.82-15.69,6.35-20.73,3.18-2.29-1.45-5.36-4.76-7.61-8.04-1.41-2.07-5.39-8-5.03-10.39.15-.99,1.73-1.72,4.52-3.49,4.87-3.09,9.25-6.18,13.3-9.45,4.94-3.99,12.53-10.01,12.61-17.83.05-5.38-3.5-11.23-6.28-14.83-4.88-6.32-13.27-12.33-21.27-16.89-3.52-2-10.09-5.43-14.19-7.06-4.03,2.27-6.01,2.88-9.43,4.72,2.5,1,4.56,2.62,4.15,4-.25.86-.89,1.04-3.88,3.04-1.75,1.17-3.9,2.86-4.9,3.77-2.2,2.03-3.41,4.28-5.29,6.51-1.14,1.35-1.85,1.85-3.01,2.71,0,1.13-.07,2.16-.14,3.58,13.06.37,24.87,4.15,30.56,11.46.81,1.04,2.08,2.85,2.59,4.2,2.56,6.82-1.79,12.38-5.44,14.78-3.63,2.4-11.9,3.85-14.22,6.05-1.8,1.7-1.96,4.76-4.09,7.41-.96,1.19-2.09,1.91-3.43,2.68.73,1.38,3.52,2.58,5.51,2.37.77-.75,1.55-1.27,2.35-2.48.61-.92,1.15-2.4,1.1-4.04-.01-.41.57-.86.83.5,1.3,6.78-6.58,7.57-5.16,15.16,1.45-.97,3.76-2.12,6.24-1.5.62-1.32,1.51-2.1,2.23-3.23.43-.68.94-1.74.87-3.68-.01-.5.65-.68.93,1.03.78,4.89-4.39,6.13-2.26,13.86,1.39-1.2,3.44-1.73,5.41-1.68.52-1.09,1.77-2.21,1.47-4.66-.07-.54.51-1.09.94.72.86,3.62-2.2,4.99-.63,9.77,5.44-2.21,6.84,1.73,9.25,4.84,1.38,1.78,3.2,4.58,4.63,5.69,3.66,2.81,13.9.39,21.66,1.21.5-4.22,3.23-7.99,6.56-8.78-1.57-5.23-8.48-6.47-11.88-2.97-.52.53-.2-.87.82-1.73,3.27-2.75,9.12-1.9,12.01,1.88.58-1.43,1.7-2.69,2.55-2.72-2.45-5.2-9.58-6.35-13.49-3.17-.31.25-.41-.44.68-1.39,3.03-2.65,9.5-2.46,13.33,1.6.26-1.48,1.03-2.59,1.8-2.59-1.05-1.7-3.94-3.85-6.53-4.11M111.76,175.55c-4.01,1.47-9.03,4.87-9.18,5.83-.34,2.22-.47,5.4-.47,7.78,2.61-1.52,3.35-4.23,6.29-6.54,5.29-4.18,7.87-4.78,7.59-5.39-.61-1.11-3.09-1.67-4.24-1.67M177.74,265.65c.34-1.73,0-4.97-.92-6.16-.64-.41-1.4.82-1.73,2.28.75,1.09,1.64,2.76,1.83,3.88.27-.03.53-.03.82,0M171.92,267.88c.71,1.27,1.28,3.78,1.33,5.37.37.02.85.02,1.19.13,1.03-3.09.69-6.86-.34-8.23-.63-.2-1.71,1.43-2.18,2.74M165.38,277.96c1.41.23,2.74.79,3.51,1.29.69-1.14,2.43-5.77,1.43-8.31-2.86.27-4.99,4.99-4.94,7.02M93.56,282.14c1.03-3.03.73-6.69-.35-8.12-.27-.36-1.83.51-2.1,1.6.86,1.47,1.69,4.5,1.6,6.36.27,0,.58.04.86.16M87.35,279.78c.96,1.87,1.48,5.15,1.2,7.16.36.04.8.18,1.2.35.78-1.94,1.59-6.64-.16-9.74-.82.14-2.02,1.01-2.24,2.24M80.87,290.47c1.06.32,2.22.97,2.77,1.81,1.34-1.61,3.18-5.37,2.38-8.84-2.52-.01-4.86,3.94-5.14,7.04"></path>
      <path class="cls-1" d="M101.88,19.98c-.38,1.78-1.92,2.22-1.93.89-.02-3.8-3.99-5.72-8.19-6.1-1.12-.1,0-.92,1.16-1.03,4.02-.38,9.82,2.16,8.96,6.23"></path>
      <path class="cls-1" d="M67.59,53.83c-1.42,8.09,2.96,8.6,3.2,14.57,2.91.55,6.13-1.57,7.9-4.36.29-.46.56.01.31,1.03-1.04,4.18-6.4,8.29-11.54,6.49,2.31-5.44-4.4-10.69-.81-17.35.71-1.3,1.05-1.05.95-.38"></path>
      <path class="cls-1" d="M82.03,75.77c.47-.58.87-.42.71.15-4.03,13.42,5.87,14.37,6.62,25.94,4.11-1.11,5.96-4.44,7.32-8.41.32-1.07.87-.48.79.96-.16,2.98-.98,5.41-1.93,6.84-1.7,2.58-5.56,5.81-10.46,5,3.11-10.09-5.38-13.85-5.41-22.9,0-2.11.84-5.82,2.35-7.57"></path>
      <path class="cls-1" d="M134.55,99.95c-.32-.47-.35-1.35,1.43.28,8.03,7.35.12,20.16,5.5,26.49-7.39,2.89-14.46-2.22-15.29-6.58-.38-2.14,1.16.72,3.19,2.07,1.71,1.13,5.04,2.3,6.78,1.9-2.07-7.88,4.32-14.56-1.61-24.16"></path>
      <polygon class="cls-2" points="246.02 176.3 303.07 176.3 303.07 119.24 246.02 119.24 246.02 176.3 246.02 176.3"></polygon>
      <polygon class="cls-1" points="245.79 119.14 245.79 176.39 303.04 176.39 245.79 119.14 245.79 119.14"></polygon>
    </g>
  </g>
</svg>
